<svg xmlns="http://www.w3.org/2000/svg" width="15" height="12" viewBox="0 0 15 12" fill="none">
<path d="M12.8571 0H1.37749C0.619837 0 -6.10352e-05 0.578571 -6.10352e-05 1.28571C-6.10352e-05 1.99286 0.619837 2.57143 1.37749 2.57143H12.8571C13.6147 2.57143 14.2346 1.99286 14.2346 1.28571C14.2346 0.578571 13.6147 0 12.8571 0Z" fill="white"/>
<path d="M12.8571 4.71429H1.37749C0.619837 4.71429 -6.10352e-05 5.29286 -6.10352e-05 6C-6.10352e-05 6.70714 0.619837 7.28571 1.37749 7.28571H12.8571C13.6147 7.28571 14.2346 6.70714 14.2346 6C14.2346 5.29286 13.6147 4.71429 12.8571 4.71429Z" fill="white"/>
<path d="M12.8571 9.42857H1.37749C0.619837 9.42857 -6.10352e-05 10.0071 -6.10352e-05 10.7143C-6.10352e-05 11.4214 0.619837 12 1.37749 12H12.8571C13.6147 12 14.2346 11.4214 14.2346 10.7143C14.2346 10.0071 13.6147 9.42857 12.8571 9.42857Z" fill="white"/>
</svg>