<!-- icon666.com - MILLIONS vector ICONS FREE --><svg id="Capa_1" enable-background="new 0 0 100 100" viewBox="0 0 100 100" xmlns="http://www.w3.org/2000/svg"><path d="m75.9 0h-51.8c-11.1 0-21 7.9-23.5 18.7-.4 1.8-.6 3.6-.6 5.4v51.7c0 13.4 10.8 24.2 24.1 24.2h51.7c1.8 0 3.6-.2 5.4-.6 10.9-2.5 18.8-12.4 18.8-23.5v-51.8c0-13.3-10.8-24.1-24.1-24.1z" fill="#564a15"></path><path d="m96.6 24.1v51.7c0 9.8-6.9 18-16.1 20.2-1.5.3-3.1.5-4.6.5h-51.8c-11.4 0-20.7-9.3-20.7-20.7v-51.7c0-1.6.2-3.2.5-4.6 2.2-9.2 10.4-16.1 20.2-16.1h51.7c11.4 0 20.8 9.4 20.8 20.7z" fill="#fbdc1a"></path><path d="m86.9 89.4h-55.6c-11.4 0-20.7-9.3-20.7-20.7v-53.5c0-2.8.6-5.5 1.6-8-5.3 3.8-8.8 10-8.8 16.9v51.7c0 11.4 9.3 20.7 20.7 20.7h51.7c6.5 0 12.4-3.1 16.2-7.8-1.6.5-3.3.7-5.1.7z" fill="#a99521" opacity=".4"></path><path d="m40.7 60.4c-.3 0-.6-.1-.9-.3-1.8-1.1-4.7-2.5-8.5-2.7-4.1-.2-7.4 1-9.4 2.1-.8.4-1.9.1-2.3-.7-.5-.8-.1-1.9.7-2.3 2.4-1.3 6.3-2.8 11.3-2.5 4.5.3 8 1.9 10.1 3.2.8.5 1 1.6.5 2.4-.3.5-.9.8-1.5.8z" fill="#5f5e5b"></path><path d="m59.3 60.4c-.6 0-1.1-.3-1.5-.8-.5-.8-.3-1.9.5-2.4 2.1-1.3 5.6-3 10.1-3.2 4.9-.3 8.9 1.2 11.3 2.5.8.5 1.2 1.5.7 2.3s-1.5 1.2-2.3.7c-2-1.1-5.3-2.3-9.4-2.1-3.8.2-6.7 1.6-8.5 2.7-.3.2-.6.3-.9.3z" fill="#5f5e5b"></path><path d="m50 82c-2.3 0-4.6-.6-6.5-1.7-3.5-2-5.5-5.5-5.5-9.8 0-1 .8-1.7 1.7-1.7s1.7.8 1.7 1.7c0 3.8 2 5.8 3.7 6.8 2.9 1.6 6.9 1.6 9.7-.1 1.7-1 3.7-3 3.6-6.7 0-1 .8-1.7 1.7-1.7.9 0 1.7.8 1.7 1.7 0 4.2-1.9 7.7-5.3 9.7-1.8 1.2-4.2 1.8-6.5 1.8z" fill="#a99521"></path><path d="m23.8 40.3c-1.9 0-3.7-.2-5.5-.6-.9-.2-1.5-1.1-1.3-2s1.1-1.5 2-1.3c2.4.5 4.9.6 7.4.4 2.5-.3 4.8-.9 7.1-2 .9-.4 1.9 0 2.3.8.4.9 0 1.9-.8 2.3-2.6 1.2-5.3 2-8.1 2.3-1.1 0-2.1.1-3.1.1z" fill="#797d80"></path><path d="m75.9 40.4c-.1 0-.2 0-.3 0-3.6-.1-7.2-1-10.5-2.6-.8-.4-1.2-1.5-.8-2.3s1.5-1.2 2.3-.8c2.8 1.4 5.9 2.2 9 2.3 1.8 0 3.6-.2 5.3-.6.9-.2 1.9.3 2.1 1.2s-.3 1.9-1.2 2.1c-1.9.5-3.9.7-5.9.7z" fill="#797d80"></path><path d="m85.2 17.1c-.9-1.1-2-2.3-3.2-3.5-.6-.6-1.2-.6-1.8 0-1.2 1.2-2.3 2.4-3.2 3.5-4.5 5.6-4.2 9.4-3.2 11.5.3.6.7 1.2 1.2 1.7 1.4 1.4 3.5 2.3 5.8 2.4h.7c3.1-.2 5.8-1.7 6.9-4.1 1-2.1 1.3-5.9-3.2-11.5z" fill="#9cd5ee"></path><path d="m88.4 28.6c1-2.1 1.3-5.9-3.2-11.5-.9-1.1-2-2.3-3.2-3.5-.6-.6-1.2-.6-1.8 0-1.2 1.2-2.3 2.4-3.2 3.5-4.5 5.6-4.2 9.4-3.2 11.5.3.6.7 1.2 1.2 1.7 1.4 1.4 3.5 2.3 5.8 2.4h.7c3.1-.2 5.8-1.7 6.9-4.1zm-7.3 2.4c-2.6 0-4.8-1.3-5.7-3.1-1.2-2.4-.1-5.8 3-9.7.8-1 1.7-2 2.8-3.1 1.1 1 2 2.1 2.8 3.1 3.1 3.8 4.1 7.3 3 9.7-1 1.8-3.3 3.1-5.9 3.1z" fill="#0093be"></path></svg>