<!-- icon666.com - MILLIONS vector ICONS FREE --><svg id="Capa_1" enable-background="new 0 0 512 512" viewBox="0 0 512 512" xmlns="http://www.w3.org/2000/svg"><g><path d="m394.378 465.692h-276.756c-14.854 0-26.896-12.042-26.896-26.896v-290.039c0-82.156 66.601-148.757 148.757-148.757h33.033c82.156 0 148.757 66.601 148.757 148.757v290.039c.001 14.855-12.041 26.896-26.895 26.896z" fill="#e49542"></path><path d="m272.517 0h-31.201c82.156 0 148.757 66.601 148.757 148.757v290.039c0 14.854-12.042 26.896-26.896 26.896h31.201c14.854 0 26.896-12.042 26.896-26.896v-290.039c0-82.156-66.601-148.757-148.757-148.757z" fill="#e27d47"></path><path d="m303.152 347.718h-19.368-55.567-19.368c-38.542 0-69.786 31.244-69.786 69.786v85.608c0 4.909 3.979 8.888 8.888 8.888h216.099c4.909 0 8.888-3.979 8.888-8.888v-85.608c0-38.542-31.244-69.786-69.786-69.786z" fill="#80b4fb"></path><path d="m303.152 347.718h-34.004c38.542 0 69.786 31.244 69.786 69.786v85.608c0 4.909-3.979 8.888-8.888 8.888h34.004c4.909 0 8.888-3.979 8.888-8.888v-85.608c0-38.542-31.244-69.786-69.786-69.786z" fill="#61a2f9"></path><path d="m275.45 296.259-37.314-2.195c-9.527 0-9.945 44.635-9.945 44.635v27.325c0 15.344 12.439 27.784 27.784 27.784 15.344 0 27.784-12.439 27.784-27.784v-27.324c-.001 0 1.218-42.441-8.309-42.441z" fill="#eaac9d"></path><path d="m256 347.718c-74.046 0-134.073-60.026-134.073-134.072v-81.091c0-1.947 1.583-3.518 3.53-3.522 62.052-.114 116.894-9.002 165.813-40.613 1.462-.944 3.415-.643 4.462.747 22.091 29.327 52.22 37.443 90.826 39.677 1.969.114 3.514 1.731 3.514 3.703v81.1c0 74.044-60.026 134.071-134.072 134.071z" fill="#ffcbbe"></path><path d="m386.559 128.843c-11.36-.657-21.98-1.831-31.883-3.898v88.7c0 68.046-50.694 124.246-116.374 132.908 5.792.764 11.698 1.164 17.698 1.164 74.046 0 134.072-60.026 134.072-134.072v-81.1c0-1.971-1.545-3.588-3.513-3.702z" fill="#eaac9d"></path><g><g><path d="m218.28 226.959h-28.113c-4.268 0-7.726-3.459-7.726-7.726 0-4.268 3.459-7.726 7.726-7.726h28.113c4.268 0 7.726 3.459 7.726 7.726.001 4.267-3.458 7.726-7.726 7.726z" fill="#eaac9d"></path></g><g><path d="m321.833 226.959h-28.113c-4.268 0-7.726-3.459-7.726-7.726 0-4.268 3.459-7.726 7.726-7.726h28.113c4.268 0 7.726 3.459 7.726 7.726s-3.459 7.726-7.726 7.726z" fill="#eaac9d"></path></g></g><g><path d="m204.224 209.453c-4.268 0-7.726-3.459-7.726-7.726v-5.405c0-4.268 3.459-7.726 7.726-7.726s7.726 3.459 7.726 7.726v5.405c0 4.267-3.458 7.726-7.726 7.726z" fill="#365e7d"></path></g><g><path d="m307.776 209.453c-4.268 0-7.726-3.459-7.726-7.726v-5.405c0-4.268 3.459-7.726 7.726-7.726s7.726 3.459 7.726 7.726v5.405c.001 4.267-3.458 7.726-7.726 7.726z" fill="#365e7d"></path></g><g><path d="m201.14 174.678c-6.691 0-13.419-.656-20.175-1.971-4.188-.816-6.924-4.872-6.109-9.06.816-4.187 4.866-6.917 9.06-6.109 23.431 4.557 45.686.079 68.026-13.699 2.592-1.598 5.878-1.525 8.398.185 17.421 11.834 39.191 16.095 68.511 13.404 4.255-.404 8.01 2.738 8.4 6.988.389 4.25-2.739 8.01-6.988 8.4-30.874 2.829-54.683-1.408-74.424-13.328-17.767 10.111-36.085 15.19-54.699 15.19z" fill="#2b4d66"></path></g><path d="m267.154 308.378c26.596-6.396 43.215-32.656 37.897-59.248-.213-1.064-1.255-1.747-2.31-1.494l-94.9 22.821c-1.055.254-1.672 1.337-1.378 2.381 7.353 26.102 34.095 41.936 60.691 35.54z" fill="#f6f9f9"></path><g fill="#d8e2f1"><path d="m231.427 264.785 10.383 43.176c5.22 1.444 10.718 2.055 16.311 1.737l-11.669-48.526z"></path><path d="m279.156 253.308-15.024 3.613 11.67 48.526c5.126-2.259 9.745-5.304 13.738-8.963z"></path></g></g></svg>